/* XPM */
static char *be1e7846fd214e008ba3942aa0f1fad1Clq8ekrab965VJ0t[] = {
/* columns rows colors chars-per-pixel */
"64 64 145 2 ",
"   c #000C06",
".  c #010E08",
"X  c #00140B",
"o  c #0A1E15",
"O  c #002616",
"+  c #0B2117",
"@  c #002B15",
"#  c #002718",
"$  c #002D1A",
"%  c #00331C",
"&  c #043B1F",
"*  c #0F3D1A",
"=  c #12361A",
"-  c #123D1D",
";  c #003621",
":  c #003B23",
">  c #123F20",
",  c #0F401D",
"<  c #11431D",
"1  c #004027",
"2  c #084127",
"3  c #0F4B27",
"4  c #02442A",
"5  c #09442A",
"6  c #024A2E",
"7  c #094C2F",
"8  c #144321",
"9  c #134B24",
"0  c #114E29",
"q  c #13522B",
"w  c #1E572B",
"e  c #1E5A2D",
"r  c #0B4D32",
"t  c #0E5134",
"y  c #125633",
"u  c #155B32",
"i  c #185E33",
"p  c #155639",
"a  c #1A573A",
"s  c #15593C",
"d  c #1B5B3D",
"f  c #205C2E",
"g  c #205C3F",
"h  c #1C6333",
"j  c #206735",
"k  c #226B36",
"l  c #286F37",
"z  c #246E38",
"x  c #287037",
"c  c #267139",
"v  c #2B773B",
"b  c #2D793D",
"n  c #1C5F41",
"m  c #215E41",
"M  c #1E6143",
"N  c #236244",
"B  c #226748",
"V  c #256A4A",
"C  c #2B6E4E",
"Z  c #2B704F",
"A  c #2C7251",
"S  c #327554",
"D  c #337857",
"F  c #337758",
"G  c #357B5A",
"H  c #397E5D",
"J  c #3A864D",
"K  c #3C884F",
"L  c #3E8A51",
"P  c #37805B",
"I  c #3A835E",
"U  c #3D8362",
"Y  c #3D8861",
"T  c #418D55",
"R  c #438F58",
"E  c #46915A",
"W  c #49945E",
"Q  c #418665",
"!  c #428867",
"~  c #458B6A",
"^  c #4A8E6E",
"/  c #4B9661",
"(  c #4E9964",
")  c #47916A",
"_  c #4A936E",
"`  c #509C67",
"'  c #539E6A",
"]  c #4D9771",
"[  c #4F9973",
"{  c #529C75",
"}  c #559D78",
"|  c #599D7C",
" . c #56A16D",
".. c #57A270",
"X. c #5AA572",
"o. c #5EA976",
"O. c #56A17A",
"+. c #5AA27E",
"@. c #5FAA79",
"#. c #62AD7C",
"$. c #5DA482",
"%. c #5EA982",
"&. c #61A684",
"*. c #62AC85",
"=. c #65AD8A",
"-. c #69AF8D",
";. c #66B083",
":. c #69B385",
">. c #65B18B",
",. c #6AB48D",
"<. c #6EB88B",
"1. c #70BA8E",
"2. c #6CB691",
"3. c #6EB993",
"4. c #72BC95",
"5. c #75BE99",
"6. c #77C099",
"7. c #7AC39E",
"8. c #7BC49F",
"9. c #7DC6A1",
"0. c #7FC8A3",
"q. c #80CAA1",
"w. c #83CCA5",
"e. c #84CEA8",
"r. c #87D2AB",
"t. c #89D2AB",
"y. c #89D3AD",
"u. c #8AD5AE",
"i. c #8FD9AF",
"p. c #90D9AF",
"a. c #8CD4B1",
"s. c #92DCB4",
"d. c #95DEB9",
"f. c #97E0B7",
"g. c #97E0BB",
"h. c #99E2BD",
"j. c #9BE4BF",
"k. c #9EE7C2",
"l. c #9EE8C2",
"z. c #9FE8C3",
"x. c #A0E9C4",
"c. c #A1EBC5",
"v. c #A3ECC6",
"b. c #A5F1C7",
"n. c #A8F3CA",
/* pixels */
"7.~ r H V t / L v v L / r.~ r H V t / K v v L / 8.U r H V y / K v v T ( y.U r I B p / K v v T / 9.G t I B s / J v v E ` u.H t I ",
"Y N : % C { k.o.v v #.k.Y M : % Z { k.X.v v ;.j.Y n : % S { k. .v v :.h.Y d : % S { l.' v v <.h.Y d : % G } l.` v v 1.g.Y p : % ",
"5 u z z u 7 { ,.q.i.6.>.5 u z z u 7 { ,.q.i.6.-.4 u z z u 7 { 2.q.i.4.*.4 i z z y r { 3.q.i.4.*.4 i z z y r { 4.q.p.4.*.4 h z c ",
"3 h v v h * =.6.d.,._ A 3 h v v h * =.7.d.,.~ A 3 h v v h * =.8.d.,.~ A 3 j v v h * >.9.d.2.! A 3 k v v i * >.0.s.2.Q A 3 k v v ",
"v v v v v v c.h.c.r 5 % v v v v v v c.h.c.7 5 % v v v v v v c.h.l.7 5 % v v v v v v v.h.k.7 5 % v v v v v v v.h.h.7 2 % v v v v ",
"v v v v v v k.,.H { N % v v v v v v k.-.I { N % v v v v v v k.-.U { m % v v v v v v l.*.U { d % v v v v v v l.$.U { a % v v v v ",
"/ L v v L / 7.! r H V t / L v v T / 7.U r H V p / K v v T / 7.U r H V p / K v v T / 8.H r H B s / K v v E / 8.G t H B s / J v v ",
"k.@.v v #.k.Y N : % C { k.X.v v #.j.Y n : % S { k.X.v v ;.h.Y d : % S { k. .v v :.h.Y d : % D { k.' v v <.g.Y a : $ G } k.( v v ",
"[ ,.q.s.6.>.5 u z z u 7 [ ,.q.s.6.-.4 u z z u 7 [ ,.q.s.5.=.4 u z z y r [ 2.q.s.4.*.4 i z c y r [ 4.q.s.4.*.4 h z c y r [ 4.q.s.",
"=.7.g.,._ A 0 h v v h - >.7.g.,.^ A 0 h v v h - >.8.d.,.~ A 0 h v v h - >.9.d.,.~ A 0 k v v h - >.0.d.,.! A 3 k v v i , >.q.s.,.",
"c.h.c.r 5 % v v v v v v c.h.c.7 5 % v v v v v v c.h.l.7 5 % v v v v v v c.h.k.7 5 % v v v v v v v.h.h.7 5 % v v v v v v v.h.g.7 ",
"k.2.H { B % v v v v v v k.-.H { N % v v v v v v k.-.H { m % v v v v v v k.*.H { d % v v v v v v l.$.I { a % v v v v v v c.$.U { ",
"7.~ r G V t ( L v v T / 7.Q r G V p ( L v v T / 7.U r G V p ( K v v T / 7.H r G B s ( K v v E ( 8.G t H B s ( K v v E ( 8.F t H ",
"Y N : % C { k.o.v v #.k.Y M : % C { k.X.v v ;.h.Y n : % S { k. .v v :.h.Y d : % F { k.' v v <.h.Y s : % G { k.` v v 1.d.Y p : $ ",
"4 u z z u 5 [ ,.q.s.6.=.4 u z z u 7 [ ,.q.s.6.*.4 u z c y 7 [ 2.q.s.5.*.4 i z c y 7 [ 3.q.s.4.*.4 h z c y r ] 4.q.s.4.%.4 h z c ",
"0 h v v h - >.7.g.,.^ A 0 h v v h < >.8.d.,.~ A 0 h v v h < >.9.d.,.~ A 0 k v v h < >.0.d.,.! Z 0 k v v i < >.q.d.,.Q Z 0 k v v ",
"v v v v v v c.h.l.r 5 % v v v v v v v.h.k.7 5 % v v v v v v v.h.k.7 5 % v v v v v v v.h.h.7 5 % v v v v v v v.g.h.7 5 % v v v v ",
"v v v v v v k.,.H { N % v v v v v v k.-.H { N % v v v v v v k.=.H { m % v v v v v v l.&.H { d % v v v v v v l.$.H } a % v v v v ",
"` T v v T ( 7.Q r G V p ` L v v T ( 7.U r G V p ` L v v T ( 7.U r G V s ` K v v E ( 7.H r G B s ` K v v E ` 7.G t G B d ' J v v ",
"h.@.v v #.j.I M : % C { j.X.v v #.h.I n : % S { j.X.v v ;.h.I d : % S { k. .v v :.h.I d : % S { k.' v v <.d.I p : $ G } k.( v v ",
"[ ,.w.s.6.=.4 u c c u 4 >.4.w.s.6.*.4 u z c u 5 [ ,.w.s.6.*.4 i z c y 5 >.5.w.s.4.*.4 i z c y 7 [ 4.w.s.4.*.4 h z c y r >.6.w.s.",
">.7.g.-.^ A 0 h v v h 0 C *.g.-.~ A 0 h v v h < ,.9.d.-.~ A 0 j v v h 0 C -.d.-.! A 0 k v v h < ,.q.d.-.U C 0 k v v i 0 V 2.s.-.",
"c.h.l.r 5 % v v v v v v @ ^ l.r 5 % v v v v v v v.h.k.7 5 % v v v v v v @ | j.7 5 % v v v v v v v.g.h.7 5 % v v v v v v O &.g.7 ",
"l.,.G { B % v v v v v v y.$.H { N % v v v v v v k.-.H { N % v v v v v v a.| H { d % v v v v v v l.$.H } d % v v v v v v a.} H O.",
"w.! r D V p ' T v v T ' w.~ r G V p ' L v v R ( 6.U r G V s ' L v v E ' w.U r G V s ' K v v E ` 7.G t G B d ' K v v W  .e.G t G ",
"_ N : % C { h.X.v v #.h.I n : % C { j.X.v v ;.h.I d : % S { j. .v v :.g.I d : % F { j.' v v <.d.I s : % G { j.( v v <.d.I p : $ ",
"+ 0 c c u 5 ] ,.w.s.6.*.4 u c c u 5 ] ,.w.s.6.*.4 u c c u 5 ] 2.w.d.6.*.4 i c c y 7 ] 4.w.d.4.*.4 h z c y 7 ] 4.w.d.4.%.4 h z c ",
"= w v v h < ,.7.g.-.~ A q h v v h < ,.9.g.-.~ Z 0 h v v h < ,.9.d.-.! C 0 k v v h < ,.0.d.-.Q C 0 k v v h < ,.q.d.-.Y C 0 k v v ",
"v v v v v v c.h.l.r 5 % v v v v v v v.h.k.7 5 % v v v v v v v.g.j.7 5 % v v v v v v v.g.h.7 5 % v v v v v v v.g.g.7 5 % v v v v ",
"v v v v v v l.,.G { N % v v v v v v k.-.G { N % v v v v v v k.*.G } m % v v v v v v l.$.H } d % v v v v v v l.$.H O.a % v v v v ",
"h k v v k e e.Q r D V p ' T v v R ` 6.U r D V s  .L v v E ' 6.U r D V s  .L v v E ' 6.H r D V d  .K v v W ' 6.D t D B n  .K v v ",
"1 u v v u : ) M : % C { h.X.v v #.h.I n : % A { h.X.v v ;.h.I d : % S { h.' v v :.g.I s : % S { j.' v v <.d.I p : $ G { j.( v v ",
"6 4 4 4 4 6 o 0 c c u 4 ] ,.w.d.6.*.4 u c c y 5 ] ,.w.d.6.*.4 i c c y 5 ] 3.w.d.4.*.4 i c c y 7 _ 4.w.f.4.%.4 h c c y 7 _ 4.w.d.",
"% ; 1 1 ; % = w v v h < ,.9.g.=.~ Z q h v v h < ,.9.g.=.! Z q k v v h < 2.0.g.=.Q C q k v v h < 2.q.d.=.Y C q k v v h 8 ,.w.d.=.",
"  O 4 4 O   v v v v v v c.g.k.r 5 % v v v v v v v.g.j.7 5 % v v v v v v v.g.h.7 5 % v v v v v v v.d.g.7 5 % v v v v v v v.d.d.7 ",
": 4 4 4 1 : v v v v v v c.-.G { N % v v v v v v k.-.G } m % v v v v v v k.&.G O.d % v v v v v v l.$.G O.d % v v v v v v c.+.H O.",
"4 : $ $ : 4 h z v v k e e.U r D V s  .T v v E ' 5.U r D V s  .L v v E ' 6.H r D V d  .K v v W ' 6.G t D V n  .K v v W ' 7.F t D ",
"4 O     O 1 1 u v v u : ) M : % C [ h.X.v v *.g.I d : % A { h. .v v :.d.I d : % S { h.' v v :.d.I p : % D { h.( v v <.s.I p : $ ",
"X 8 k k 8 X 6 4 4 4 4 6 o q c c u 4 _ ,.w.f.6.*.1 u c c y 4 _ 2.w.f.4.*.1 i c c y 5 _ 3.w.f.4.%.1 h c c y 7 _ 4.w.f.4.%.1 h c x ",
"- e v v e - $ ; 1 1 ; $ = e v v h < 2.9.h.*.! C q j v v h < 2.0.g.*.Q C q k v v h 8 2.q.d.*.Y C q k v v h 8 2.q.d.*.U C q k v v ",
"v v v v v v   # 1 4 O   v v v v v v c.d.j.r 5 % v v v v v v v.d.h.7 5 % v v v v v v v.d.g.7 5 % v v v v v v v.d.d.7 2 % v v v v ",
"v v v v v v : 4 4 4 1 : v v v v v v c.=.G } N % v v v v v v l.*.G } m % v v v v v v c.$.G O.d % v v v v v v c.$.G O.a % v v v v ",
"h k v v k h 4 : $ $ : 4 h z v v k e e.U r F V s X.L v v E ' 5.H r F V d X.L v v W ' 5.G r F V n X.K v v W ' 6.F t D V M X.K v v ",
"1 u v v u 1 4 O     # 1 1 u v v u : ) n : % C { h.X.v v ;.g.I d : % S { h. .v v :.d.I s : % S { h.' v v <.d.I p : $ D { h.( v v ",
"6 4 4 4 4 6 X 8 k k > X 6 4 4 4 4 6 o q c c y 4 _ ,.r.g.6.*.1 i c x y 4 *.6.e.g.4.*.: i c x y 5 _ 4.r.g.4.%.: h c x y 5 *.7.r.g.",
"$ ; 1 1 ; $ - e v v w - $ ; 1 1 ; $ - f v v h 8 3.0.h.&.Q C q k v v h q B -.g.&.Y C q k v v h 9 3.q.d.&.U C q k v v h q B 2.d.*.",
"  O 4 4 O   v v v v v v   # 1 4 O   v v v v v v c.d.h.7 5 % v v v v v v $ } h.7 5 % v v v v v v v.d.d.7 5 % v v v v v v @ &.s.7 ",
": 4 4 4 1 : v v v v v v : 4 4 4 1 : v v v v v v l.=.D } m % v v v v v v s.| G O.g % v v v v v v c.$.G O.d % v v v v v v s.} G O.",
"4 : $ $ : 4 h k v v k h 4 : $ $ : 4 h z v v E  .5.U r A V d X.L v v W X.0.U r F V n X.L v v W  .5.G t F V M X.K v v / X.0.G t F ",
"4 O     O 1 1 u v v u 1 4 O .   # : 1 u v v *.d.P d : % A [ g...b v ;.d.P d : % S [ h.' b v :.d.I p : % S { h.` b v <.s.I p : $ ",
"X 8 k k 8 X 6 4 4 4 4 6 X 8 k l > X 6 4 & b.6.*.: i c x u 4 _ 2.r.g.5.%.: i c x y 4 _ 4.r.j.4.%.: h c v y 5 _ 4.r.j.4.$.: h c v ",
"- e v v e - $ ; 1 1 ; $ - f v v w - $ ; : 2.Q C q k v v h 9 3.q.g.$.U C q k v v h 9 3.q.d.$.U C q k v v h 9 3.w.d.$.U V q k v v ",
"v v v v v v   # 1 4 O   v v v v v v   # : d 5 % v v v v v v c.d.g.7 5 % v v v v v v v.d.d.7 5 % v v v v v v v.d.s.7 2 % v v v v ",
"v v v v v v : 4 4 4 1 : v v v v v v : 4 1 +.N % v v v v v v l.&.D O.m % v v v v v v c.$.G O.d % v v v v v v c.+.G O.a % v v v v ",
"h k v v k h 4 ; $ $ : 4 h k v v k h 4 ; O F V d o.T v v W  .5.H r A V n o.L v v W ..5.G r A V M o.L v v / X.5.F t A V N o.K v v ",
"1 u v v u 1 1 O .   # 1 1 u v v y 1 1 O   % C [ g.X.b v ;.d.P d : % S [ h. .b v :.d.P a : % F { h.' b v <.s.P p : $ D { h.( b v ",
"6 4 4 4 4 6 X 8 k x > X 6 4 4 4 4 6 X 8 k x y 4 _ ,.t.j.6.*.: i c v y 4 _ 3.t.j.4.%.: h c v y 5 _ 4.t.j.4.$.: h c v y 5 _ 4.t.j.",
"$ ; 1 1 ; $ - e v v e > $ ; 1 1 ; $ - f v v h 9 3.q.h.$.Y C q k v v h 9 3.q.h.$.U C q k v v h 9 3.e.g.$.I V q k v v h 9 3.e.d.$.",
"  # 4 4 O   v v v v v v   # 1 4 O   v v v v v v c.d.h.r 5 % v v v v v v c.d.d.7 5 % v v v v v v v.d.d.7 5 % v v v v v v v.d.s.7 ",
": 4 4 4 1 : v v v v v v : 4 4 4 1 : v v v v v v l.*.F O.N % v v v v v v c.$.F O.g % v v v v v v c.+.D O.d % v v v v v v c.| G O.",
"4 : $ $ : 4 h k v v k h 4 ; $ # : 4 h k v v W X.4.U r A V n o.T v v W X.4.H r A V M o.L v v / X.5.G t A V N #.K v v / X.5.F t A ",
"1 O     O 1 1 u v v u 1 1 O .   # : 1 u v v ;.d.G d : % C [ d...b v :.d.G s : % S [ d.' b v :.s.G p : % S [ g.` b v <.s.G p : % ",
"X 8 c x 8 X 6 4 4 4 4 6 X 8 x x > X 6 4 & n.6.%.: i x v y 4 _ 3.t.j.5.%.: i c v y 4 _ 4.t.j.4.$.: h c v y 4 _ 4.t.j.4.+.: h c v ",
"8 e v v e 8 $ ; 1 1 ; $ 8 f v v e 8 $ ; : ,.Y V q k v v h 9 4.q.h.$.U V q k v v h 9 4.w.g.$.I V q k v v h 9 4.e.d.$.H V q k v v "
};
