/* XPM */
static char *_ae8e981a1414ce6c523d2e87569ed0buYwaZHq73SmjqsL2[] = {
/* columns rows colors chars-per-pixel */
"64 64 256 2 ",
"   c None",
".  c #000000",
"X  c #090302",
"o  c #140000",
"O  c #010518",
"+  c #03161B",
"@  c #0B130D",
"#  c #2A0202",
"$  c #3B0000",
"%  c #000126",
"&  c #01023A",
"*  c #080F29",
"=  c #032735",
"-  c #072A2E",
";  c #313031",
":  c #311026",
">  c #430000",
",  c #4A0000",
"<  c #5B0101",
"1  c #41190F",
"2  c #7A0001",
"3  c #670103",
"4  c #43221A",
"5  c #7C3833",
"6  c #672627",
"7  c #63442E",
"8  c #00005C",
"9  c #030258",
"0  c #020F4C",
"q  c #013549",
"w  c #00304D",
"e  c #010063",
"r  c #01006C",
"t  c #03086F",
"y  c #010073",
"u  c #01007B",
"i  c #08067C",
"p  c #0E1674",
"a  c #331175",
"s  c #102F6C",
"d  c #37225A",
"f  c #51334D",
"g  c #562763",
"h  c #01475A",
"j  c #0D5758",
"k  c #2E5153",
"l  c #0F546A",
"z  c #2A5364",
"x  c #156477",
"c  c #2B6977",
"v  c #1D765C",
"b  c #765065",
"n  c #67605C",
"m  c #890101",
"M  c #9C0100",
"N  c #940101",
"B  c #94160D",
"V  c #A40101",
"C  c #BA0000",
"Z  c #993310",
"A  c #A82D13",
"S  c #8D3E34",
"D  c #A32521",
"F  c #CD0701",
"G  c #E40102",
"H  c #EA0000",
"J  c #FB0102",
"K  c #E53629",
"L  c #B25119",
"P  c #AA582B",
"I  c #A05428",
"U  c #CB4811",
"Y  c #F27106",
"T  c #CC542E",
"R  c #CC6B33",
"E  c #E9601F",
"W  c #944C49",
"Q  c #8C5E61",
"!  c #9B7172",
"~  c #BA6D67",
"^  c #AA5A53",
"/  c #CC6D6B",
"(  c #E36955",
")  c #F88815",
"_  c #ED8534",
"`  c #D9873D",
"'  c #9B8A7B",
"]  c #DA8449",
"[  c #D58752",
"{  c #ED924F",
"}  c #D3906A",
"|  c #EF9A6A",
" . c #EAA77B",
".. c #F6AD71",
"X. c #FFB14F",
"o. c #FFC35F",
"O. c #010283",
"+. c #01038B",
"@. c #030A88",
"#. c #010295",
"$. c #01059B",
"%. c #021496",
"&. c #0B168D",
"*. c #231F88",
"=. c #062795",
"-. c #353390",
";. c #0105A4",
":. c #011CA3",
">. c #0115A7",
",. c #0005B5",
"<. c #0016B5",
"1. c #0323AB",
"2. c #022BB8",
"3. c #0535BB",
"4. c #0F31AE",
"5. c #252BA1",
"6. c #37798A",
"7. c #317390",
"8. c #0F4DB6",
"9. c #2B53B4",
"0. c #2C69AD",
"q. c #165E8D",
"w. c #5A509A",
"e. c #567A87",
"r. c #4A57B2",
"t. c #6A69B0",
"y. c #787185",
"u. c #0007C8",
"i. c #0015CE",
"p. c #0226C7",
"a. c #0338C5",
"s. c #0135D9",
"d. c #0035EE",
"f. c #0004EA",
"g. c #0543CB",
"h. c #0248D5",
"j. c #0455DB",
"k. c #124FCF",
"l. c #2755CC",
"z. c #116ACA",
"x. c #3568D0",
"c. c #004BEA",
"v. c #0159E7",
"b. c #0049F6",
"n. c #0058F8",
"m. c #0164ED",
"M. c #0469ED",
"N. c #0065F1",
"B. c #016BF4",
"V. c #0468F9",
"C. c #0173F3",
"Z. c #0173FC",
"A. c #017BFE",
"S. c #0B78F1",
"D. c #1277ED",
"F. c #2579F1",
"G. c #4E73D4",
"H. c #85728E",
"J. c #3B98B2",
"K. c #48889C",
"L. c #528691",
"P. c #6E9295",
"I. c #5898A6",
"U. c #4D95AA",
"Y. c #6695AF",
"T. c #59A4B7",
"R. c #67A6B8",
"E. c #74AFB6",
"W. c #6BB99B",
"Q. c #78C1B3",
"!. c #0886F8",
"~. c #198BF3",
"^. c #1B97FA",
"/. c #138AEF",
"(. c #2789EB",
"). c #2899EF",
"_. c #228BF2",
"`. c #2B9CF1",
"'. c #2598F2",
"]. c #358FF1",
"[. c #2CA5F5",
"{. c #32A3F1",
"}. c #3AABF1",
"|. c #3AB6F8",
" X c #37A8EF",
".X c #7697DA",
"XX c #50B7CC",
"oX c #79B6C6",
"OX c #6FB7C9",
"+X c #499AF4",
"@X c #558EEA",
"#X c #6598EE",
"$X c #47B5EE",
"%X c #46B5F2",
"&X c #50AFF1",
"*X c #6BAEEF",
"=X c #3EC5FE",
"-X c #74C9D5",
";X c #55C6F1",
":X c #51CDF4",
">X c #6BD3F1",
",X c #74DBF1",
"<X c #6DCEEA",
"1X c #7BE5F3",
"2X c #7FE5ED",
"3X c #B38C8F",
"4X c #8A8BB9",
"5X c #95ABB4",
"6X c #ACB2B7",
"7X c #B99DB7",
"8X c #C78E90",
"9X c #ECAC86",
"0X c #F1AE8C",
"qX c #F0A985",
"wX c #F5B589",
"eX c #F2B293",
"rX c #F7B99A",
"tX c #EBB092",
"yX c #D0AFAB",
"uX c #F8BDA4",
"iX c #EDB2AA",
"pX c #D8A892",
"aX c #FFC88C",
"sX c #F5CAB7",
"dX c #F3C5AE",
"fX c #FFF5A6",
"gX c #8D8BC2",
"hX c #93B4EB",
"jX c #979ED7",
"kX c #85C8C8",
"lX c #8BD7DD",
"zX c #94CDD6",
"xX c #B1D1D7",
"cX c #8DCCF2",
"vX c #BBCFEC",
"bX c #90F1F2",
"nX c #A7FBFD",
"mX c #ADEEF0",
"MX c #B3E9DE",
"NX c #C9D8D8",
"BX c #C7D1D4",
"VX c #EAD3CD",
"CX c #F8ECD6",
"ZX c #CCD6E7",
"AX c #C8EAE5",
"SX c #D8E8EA",
"DX c #C7FCF9",
"FX c #D6F2F7",
"GX c #FAF7EC",
"HX c #E8FDFD",
"JX c #F1F1F1",
"KX c #FCF3F2",
"LX c #FEFCF3",
"PX c #FFFFFE",
"IX c #F5FCFA",
"UX c #E8EDEE",
/* pixels */
"                        .X.X#X#X#X#X#X#X#X*X*X*X*X*X*X*XcX*X*X#X@X@X                                                            ",
"                        3.8.c.b.c.c.c.c.n.B.C.C.C.C.M.C./.!.C.v.c.d.].GX                                                        ",
"                      a.%.e 2.h.g.g.a.m.Z.Z.B.m.Z.A.%.O.p.M.=X{.`.)._.(.M.v.                x.                                  ",
"                        :.@.:.1.1.1.:.g.m.j.v.B.m.v.+.r -.9.(.`.}.$X{./.C.N.cXvX        jX,.x.                                  ",
"                        2.a.u 9 e e 8 :.h.3.h.A.v.a.$.r Y b f.D.:X1X>X_.`.{.!.M.d.*XPX-.e <.G.                                  ",
"                              4X4XgXgX5.%.%.1.v.2.%.b Q | ~ b 9.M.$X;X$X$X$X`.~.D.+XcX5.r <.G.                                  ",
"                                        9 e O.a.$.r [ o.sX| Y a i./.%X1X,X,X}.`.}.~.A.%.r <.G.                                  ",
"                                        VX4.2.C.2.r 8XaXrX| E dXFXM./.,X>X>X;X;X>X$X'./.j.r w.                                  ",
"                                        FXk.h.!.2.r 8XaXeXpX' VXHXS./.,X>X>X>X,X1X;X`.[.^.@.r.                                  ",
"                                    v.v.v.Z.Z.A.1.8 ( X...6X!.^.'.~.$XbX1X1X,X>X,X%X~.{.{.n.+X                                  ",
"                                  @Xm.B.N.j.v.Z.h.2.w.H.5XOX|.[.'.$X$X`.(.x.$X;X,X;X$X}.`.N.&X                                  ",
"                                c.c.N.Z.Z.2.a.B.Z.A.p.p.!.|.2X}.'.bX$Xd.i.;.D.|.,X,X,X%X'.C.*X                                  ",
"                            +X].B.B.A.3.&.2.h.B.N.N.m.F.;XcXJXcX;X/.+XvXvXxXD.B.}.;X1X%X'.'.{.+X                                ",
"                          d.c.c.m.m.Z.%.8 2.h.B.N.N./.[.:XmXLXmX:XC.*XLXLXPX(.m.~.%X,X}.`.}._.v.                                ",
"                        Z.A.j.a.g.g.h.%.y 2.h.B.N.N.`.}.'.%XbX}.).lXAXKXJXJXMX<XV.~.$X{.{.|.(.i.hX                              ",
"                      2.a.g.1.%.:.:.1.@.u 2.h.B.N.N._.`.'.}.;X[.`.lXAXKXJXJXHXzX=.8.^.`.{.[.z.8 4X                              ",
"                    s.8 e e r r y y y O.#.3.j.B.N.m.S.~.{.`.'.'.{.lXAXKXJXJXPXyX. 0 A.'.}.^.q.. '                               ",
"                    #.>.:.>.>.>.u u O.& % i 2.Z.N.m./._.{.{.{.`.{.lXAXKXJXJXPXNXL.z w z.^.!.z.- 6X                              ",
"                    i g.g.g.g.g.O.O.#.O . 8 >.Z.N.N.D.~.`.{.{.`.{.lXAXKXJXJXLXSX,Xk . q.^.N.z.h 5X                              ",
"                              ZX<.,.i.% . r >.a.j.C.N.B._._.~.`.}.>XmXKXJXJXPXBXx - . J.:XO O q 5X                              ",
"                                    @Xs & y %.2.j.Z.N.N.S.S.S.~.`.[.cXLXJXJXPXBXl = . oXnX. @ q.                                ",
"                                      #Xu.u @.a.v.A.N.N.m.n.n.Z.A.n.+XLXKXJXPXBXh O . BXPX. + OXFX                              ",
"                                    #XF.h.O.u %.2.v.N.V.V.x.! 5XhXcXcX&XvXLXIXSXzX3XS 9XdXc c 7.z                               ",
"                                    d.V.C.@.y r %.a.v.Z.V.t.) aXCXLXvXC.cXLXJXKXPXCX{ { ] lXT.h . .                             ",
"                                _.F.Z.v.a.O.u u +.+.W ` } pXVXuXeXVXSXFXHXIXVXVXCXsXrX7 @ . . . . .                             ",
"                            D.b.c.v.M.a.:.O.u O.O.u S R _ ..CXrXqXuXVXGXCXCXsXdXsXuXrX4 . : ; ; ; ;                             ",
"                          c.Z.B.a.a.h.%.r O.O.u +.#.#.p Y { uXeX0X0X0XqXqXqX0XeXuXwX..N 2 PX                                    ",
"                          b.v.h.%.%.%.O.u O.O.+.9 & u +.f Q ..0XeXeXeX0X0X0X .| } R A / 8X                                      ",
"                        hXn.h.1.y r r u O.O.O.$.% . e $.#.g X.qXrXeXeXeXeXeX| ] R B < VX                                        ",
"                        j.p.+.u >.<.<.+.y u u u r e O O ;.a F T { ] ] ] ] ] A B 2 ^ VX                                          ",
"                        j.9.*.*.l.l.x.4.u @.@.@.$.;.O . O.d 2 Z P I L L L I 2 2 B 8X                                            ",
"                                      x.;.<.2.g.g.h.;.8 . % u.% . . o V , X X f PXPX                                            ",
"                                          .XG.:.:.:.w.y.n f d 9 t 4 6 T S 5 6 S 8XVX                                            ",
"                                            VXe y r pXfXCX| C 5.b.R _ ......` L < ^                                             ",
"                                            @X3X3X3X[ R K 6 a f ^ } 0XsXtX .9X} Z }                                             ",
"                                          n.x.aXaXaXR Z m : ,.S ) 0XsXCXdX0XdX0XL tX                                            ",
"                                        N.yXwX..{ Y a y . & d.Q ) 0XrX0XtX0XrX0X]                                               ",
"                                        s.0X| R I 5 O.+.k l d.b U | 0X0X0XeX0X .R                                               ",
"                                      G.<. .R m * #.r &.DX*Xi.3 C [ wXuXuXrX .{ U rX                                            ",
"                                      4.O.R { pX7XjX7.0.HXzX0.-.a A T { ] ] U Z 1 n R.L.                                        ",
"                                    b.;.9 Z } PXPXPXkXE.PXNXW.z.s.3 M R P P M < . + h q h                                       ",
"                                    s.%.e $ 5 DXzXR.NXJXJXJXLXG.,.4.4.8.k.k.k.a.+.p j K.R.                                      ",
"                                    >.%.@.* f mXT.7.SXPXJXJXIX.Xl.h.p.2.1.=.1.=.r s j K.oX-X                                    ",
"                                    e ;.p.u.g.kXc = xXPXKXSXbXmXmXk.$.r O . . . . + h I.oXU.                                    ",
"                                    8 r.hXjXY.c 6.6.NXPXFXxXOXkXkX3.4.gXf . & 0 - z K.6.6.x P.                                  ",
"                                    8         = 6.oXSXKXbX-XK.I.I.<.G.PXn . O.>.l K.zXc q = e.                                  ",
"                                                L.q xXDXoXE.Q.0.3.vXUXPXw.8 O.e @ - 7.h h BX                                    ",
"                                                  k E.kXK.K.I.3.p.LXLXPXt.u ;.t . + l z L.                                      ",
"                                                    z = v s r #.p.SXPXPXt.r s.=.. . w xX                                        ",
"                                                      e.s p $.r..XUXPXPXt.r p.8.n P.P.                                          ",
"                                                        y #.i.vXPXPXPXPXt.r >.x.PXPX                                            ",
"                                                        8 5.vXUXPXPXPXPXt.e ,.l.PXPX                                            ",
"                                                        p t.PXPXPXPXIXSXt.p 1.x.IXJX                                            ",
"                                                    lXDXPXLXKXKXKXPXxXq K.oXR.oXmXmX                                            ",
"                                                  x OXzXNXAXFXAXSXPX6X+ c I.K.I.kXlXlX                                          ",
"                                                E.q I.R.7.OXnXbXnXPX3X. + x q l K.-XnX                                          ",
"                                                ; + l J.bX5XW S W MXxXP.c l K.I.XXP.W                                           ",
"                                              o X X = c nX3Xm m N kXnXFXI.q I.R.XX5 m yX                                        ",
"                                              X < N m m V 5 U.kXMXHXIXIX( F . . # ; x T.-X                                      ",
"                                            ! > 2 V M N B b <XbXnXiXiXiX( K 6 4 m 4 h z e.P.5XiX                                ",
"                                            $ V N m M N T.-XDXnXbXF G F ( CXCXrXJ 2 . X # o , V N m                             ",
"                                            , V M M Q y.T.OX-X3X( G H G K ( ( K J C m M V 2 < $ , 3 ~ / ~ /                     ",
"                                            , V M M Y.:XR.T.XXD J H G G G G G G G J J J J F < . X > 2 m 2 C J                   ",
"                                            X . . . . . . . . # , > > > , > , , > > > > > $ # # . . . . . o >                   "
};
