/* XPM */
static char *_a9973802c0346538e772119ed59547dW3QjpkuYBhTBylKI[] = {
/* columns rows colors chars-per-pixel */
"64 64 90 1 ",
"  c #030000",
". c #0B0000",
"X c #120000",
"o c #180000",
"O c #2D0000",
"+ c #330000",
"@ c #3A0000",
"# c #420000",
"$ c #4C0000",
"% c #520000",
"& c #5D0000",
"* c #650000",
"= c #6C0000",
"- c #730000",
"; c #7F1300",
": c #7B1A00",
"> c #850000",
", c #820F00",
"< c #851500",
"1 c #861900",
"2 c #8B1C00",
"3 c #901F03",
"4 c #8E2100",
"5 c #932402",
"6 c #962904",
"7 c #992B06",
"8 c #972908",
"9 c #9B2D09",
"0 c #9F310D",
"q c #A1330E",
"w c #A9340D",
"e c #A33611",
"r c #A63914",
"t c #A93B16",
"y c #AB3E19",
"u c #B13F1F",
"i c #B23F20",
"p c #AA4217",
"a c #AE421C",
"s c #AF491D",
"d c #B0431E",
"f c #B04C1E",
"g c #B44622",
"h c #B64924",
"j c #B64A24",
"k c #B74B25",
"l c #B74C25",
"z c #B84B26",
"x c #B94F27",
"c c #BB4E29",
"v c #B55323",
"b c #B65324",
"n c #B75425",
"m c #B85426",
"M c #B95827",
"N c #BB5629",
"B c #BC542A",
"V c #BD552B",
"C c #BD572B",
"Z c #BF522D",
"A c #BD582B",
"S c #BD592B",
"D c #BF592D",
"F c #BF5B2D",
"G c #C0532E",
"H c #C05B2E",
"J c #C15C2F",
"K c #C15F2F",
"L c #C0632F",
"P c #C26230",
"I c #C46332",
"U c #C26430",
"Y c #C46532",
"T c #C66734",
"R c #C46932",
"E c #C76B35",
"W c #C76D35",
"Q c #C86C36",
"! c #C86E36",
"~ c #CB6F39",
"^ c #CC6F3A",
"/ c #C97037",
"( c #CB7139",
") c #CD723B",
"_ c #CD773B",
"` c #CE773C",
"' c #D0773E",
"] c #D0793E",
"[ c #D57F43",
"{ c #D58043",
/* pixels */
"(Eikkkkkz52446kkkkkkg^)((Egkkkuyt<,<<2tttttttggggdrttttrt,,<<2tt",
"kkkkkkkd5550092LPgkkkkkkkkkkkkka5550072UPgkkkkkkkkkkkkky5560072E",
"kkkkkkkd270aay5UYgkkkkkkkkkkkkky270aat5EIgkkkzzzzkkkkkkt47qaar5!",
"ggkkkkkd2etcxk0UYgkkkgggggkkkkka2eycxg0RPgkkkgggggkkkkkt4rtcxg0E",
"57Zggkka1etcxg6RRgkkZ75557Zggkky1eycxg6WYgkkG55559Zggkkt2rtcxd6/",
"77qNCgkgr77ytanACgkge55777qACgkgr77ttanDCkkdr557770DCgkdr69ttanD",
"re<UEgkkZ76eey]kgkka256tre<RYgkkG66eea]ggkkt257rr0<!YgkkG57ees]g",
"kg9UYgkkgRW!!Ykkkkka2qekkd7YUgkkgEW!!Ykkkkky2qrkka9EPgkkgWW!!Pkk",
"zg9UYgkkgDHDDAgkkkka2qrczg9RYgkkgDHDDCgkkkky2eyxzg9WPgkkgHHDDCgk",
"ggqPIgkkkgggggkkkkkd5qekgdqUPgkkkgggggkkkkka5qrkgdqYJgkkkgggggkk",
"9e`xkkkkkccccckkkkkkx2209r_xkkkkkccccckkkkkkx2399p_kkkkkkccccxkk",
"bnJkkkkkcreeercggkkkzffnbmJkkkkkcreeercggkkkzsfnbmJkkkkkceeeetcg",
"(Egkkkkkk52446kkkkkkg~)(~Tikkkkgk42448gkkkkkg))((Ygkkkkgk22447gl",
"kkkkkkkd555q092LPgkkkkkkkkkkkkka555q092UPgkkkkkkkkkkkkky556q072E",
"kkkkkkkd270aat5UYgkkkkkkkkkkkkky270aat5RPgkkkkkkkkkkkkkt47qaar5W",
"ggkkkkkd2etcxk0UYgkkkgggggkkkkka2eycxg9RPgkkkgggggkkkkkt4rtcxg0E",
"57Zggkka1etcxg6RRgkkG65557Zggkky1eycxg6WYgkkG55559Zggkkt2rtczd6/",
"770NDgkgr77ttynACgkge557770AAkkgr67ttanDCkkde557770DCkkdr69ttanD",
"re<UEgkkZ76eep]kgkka256tre<RYgkkG67eea]ggkkt257rr0<!YgkkG67ees]g",
"kg9PYgkkgE!!!Egkkkka2qrzkg9YUgkkgW!!!Ygkkkky4qrkkd9EPgkkg!!!!Pgk",
"zg9UYgkkgDDDDCgkkkka2qrczg9RYgkkgDDDDCgkkkky2eyxzd9WPgkkgDDDDCkk",
"ggeLPgkkkgggggkkkkkd50rkgdePPgkkkgggggkkkkky5qekgdeYJgkkkgggggkk",
"9e`xkkkkkccccckkkkkkx2209r`lkkkkkccccckkkkkkx2399p`kkkkkkccccxkk",
"nmDkkkkkcreqqrcggkkkzffmnmDkkkkkceeqqrcgkkkkzfknnmDkkkkkceeqqtcg",
"(Egkkkkkk52446gkzkkkg~)((Tgkkkkgk42448gxkkkkg))((Ygkkkkgk22449gx",
"kkkkkkkd555q092LIgkkkkkkkkkkkkka555q072YPgkkkkkkkkkkkkky556q072E",
"zzkkkkkd270dat5UYgkkkzzzzzkkkkky270aay5RPgkkkzzzzkkkkkkt27qaat5W",
"ggkkkkkd2etcxk0UYgkkkgggggkkkkka2eycxg0RPgkkkgggggkkkkkt4rtcxg0E",
"56Gggkka1etcxg5RRgkkG65559Zggkky1eycxg6WYgkkG55559Zggkkt2rtczd6/",
"779CDgkgr77tttmCCgkgq557779DDgkgt69ttaMCCkkdq557779DCkkgt67ttamC",
"re<UEgkkZ77eep]kgkka257rre<RYgkkZ67eea]ggkkt257rr0<!YgkkG67ees'g",
"kg9UYgkkgE!!!Egkkkka2qrzkg9YUgkkg!!!!Ygkkkky4qrkkd9EPgkkg!!!!Pgk",
"zg9UYgkkgCDDDCgkkkka2qrczg9RYgkkgCDDDCgkkkky2etzzd9WPgkkgDDCDCkk",
"ggeLPgkkkgggggkkkkkd50rkgdeUJgkkkgggggkkkkky5qrggdeYJgkkkgggggkk",
"9e`xkkkkkccccckkkkkkc2209r`lkkkkkccccckkkkkkc2399y`kkkkkkccccxkk",
"mmDkkkkkcrqqqrcggkkkzkkmmmDkkkkkceqqqrcgkkkkzkvmmNDkkkkkcqqqqrcg",
"~Egkkkkgk52446gkzkkkg~)~~Ygkkkkgk42448gxlkkkg))~~Igkkkkkk24447gx",
"kkkkkkkd455q092LYgkkkkkkkkkkkkka555q072YPgkkkkkkkkkkkkkt556q072E",
"zzkkkkkd270dat5UYgkkkzzzzzkkkkky270aay5RPgkkkzzzzkkkkkkt27qaat5W",
"ggkkkkkd2etcxk0UYgkkkgggggkkkkka2eycxg0RPgkkkgggggkkkkkt4rtcxg0E",
"56Gggkka1etcxg6RRgkkG65559Zggkky1eycxg6WYgkkG55559Zggkkt2rtcxd6/",
"779ADgkgt67tttMCCgkgq557779ADgkgt67ttaMCCkkdq557779DCkkgt57ttaMC",
"re<UEgkkZ77eep`kgkka257yre<RYgkkZ77eea`ggkkt257trq<!YgkkZ67eef`g",
"kg9PYgkkg!(((Egkkkka2qrzkg9YPgkkg!(((Ygkkkky4qrkkd9EPgkkg((((Ygk",
"zg9UYgkkkCCCCCkkkkka2qrczg9RYgkkkCCCCCkkkkky2eyxzd9WPgkkgCCCCCkk",
"gdeLPgkkkgggggkkkkkd50rkgdeUJgkkkgggggkkkkka5qeggdeYJgkkkgggggkk",
"9r]xkkkkkccccckkkkkkc2299r]xkkkkkccccckkkkkkc2399y`kkkkkkccccxkk",
"MMDkkkkkceq00eckgkkkkvvMMMDkkkkkceq00ecggkkkkvvMMMDkkkkkcqq00rcg",
"~Tgkkkkkg52446glxkkkg~)~~Ygkkkkgk42448gxlkkkg(~~~Igkkkkgk24447gx",
"kkkkkkkd455qq02LYgkkkkkkkkkkkkky455qq92RPgkkkkkkkkkkkkkt456qq72W",
"zzkkkkkd470dat5UYgkkkzzzzzkkkkka47qdat5RPgkkkzzzzkkkkkkt49eday5E",
"dgkkkkkd2etcxk0UYgkkkddddgkkkkka2eycxg0RPgkkkddddgkkkkkt4rtcxg0E",
"46Gggkka1etcxg6RRgkkG65449Zggkky1eycxg6WYgkkG55447Zggkkt2rtcxd6/",
"777ADgkgy66trtACNkkgq557777DDgkgy57traACCkkdq557777JCkkgy59traMC",
"re<UEgkkZ77eep`kgkka257yre<RYgkkZ77eea`ggkkt257trq<!YgkkZ60eef`g",
"kg9UYgkkg!(((Egkkkka2qrzkg9YUgkkg!(((Ygkkkky4qrkkd9EPgkkg((((Ygk",
"zg7UYgkkkCCCCCkkkkka2qrczg7RYgkkkCCCCCkkkkky2eyxzd7WPgkkgCCCCCkk",
"gdeLPgkkkgggggkkkkkd50rkgdePPgkkkgggggkkkkka5qeggdeYJgkkkgggggkk",
"rp{CccccccccccccccccG66era[CccccccccccccccccG56erf[ccccccccccccc",
"70pqqqqqqwwwqqqqqqqqe66770pqqqqqqwwwqqqqqqqqe66770pqqqqqqwwwqqqq",
"22<222222:::11212211122222<222222:::11222222122222<222222:::1122",
"========>o. @$-=================>X. @$-*===============->.. #%-*",
"=======*+++O&&%;<==============*+++O&&%<;==============&+++O&&%<",
"=======& $%%==@44==============% $%%-*@52==============% $%%-*@6"
};
